# xmcd CD database file
#
# Track frame offsets:
#	150
#	17910
#	34890
#	52685
#
# Disc length: 927 seconds
#
# Revision: 0
# Processed by: cddbd v1.5.1PL0 Copyright (c) Steve Scherf et al.
# Submitted via: CDex 1.51
#
DISCID=27039d04
DTITLE=TUBE - 花火
DYEAR=1998
DGENRE=Japanese Pop
TTITLE0=花火
TTITLE1=HENTHOL HEVAEN
TTITLE2=花火（カラオケ）
TTITLE3=HENTHOL HEVAEN（カラオケ）
EXTD=YEAR: 1998
EXTT0=
EXTT1=
EXTT2=
EXTT3=
PLAYORDER=
